<svg id="visual" viewBox="0 0 900 600" width="900" height="600" xmlns="http://www.w3.org/2000/svg" xmlns:xlink="http://www.w3.org/1999/xlink" version="1.1"><path d="M430 0L414.7 14.3C399.3 28.7 368.7 57.3 379.3 85.8C390 114.3 442 142.7 492.8 171.2C543.7 199.7 593.3 228.3 587.5 257C581.7 285.7 520.3 314.3 502 343C483.7 371.7 508.3 400.3 473.2 428.8C438 457.3 343 485.7 315.2 514.2C287.3 542.7 326.7 571.3 346.3 585.7L366 600L0 600L0 585.7C0 571.3 0 542.7 0 514.2C0 485.7 0 457.3 0 428.8C0 400.3 0 371.7 0 343C0 314.3 0 285.7 0 257C0 228.3 0 199.7 0 171.2C0 142.7 0 114.3 0 85.8C0 57.3 0 28.7 0 14.3L0 0Z" fill="#e0ac81" stroke-linecap="round" stroke-linejoin="miter"></path></svg>