<svg id="visual" viewBox="0 0 900 600" width="900" height="600" xmlns="http://www.w3.org/2000/svg" xmlns:xlink="http://www.w3.org/1999/xlink" version="1.1"><path d="M0 285L21.5 274.8C43 264.7 86 244.3 128.8 251.5C171.7 258.7 214.3 293.3 257.2 327.2C300 361 343 394 385.8 390C428.7 386 471.3 345 514.2 332.7C557 320.3 600 336.7 642.8 313.3C685.7 290 728.3 227 771.2 208.5C814 190 857 216 878.5 229L900 242L900 0L878.5 0C857 0 814 0 771.2 0C728.3 0 685.7 0 642.8 0C600 0 557 0 514.2 0C471.3 0 428.7 0 385.8 0C343 0 300 0 257.2 0C214.3 0 171.7 0 128.8 0C86 0 43 0 21.5 0L0 0Z" fill="#d9b28d" stroke-linecap="round" stroke-linejoin="miter"></path></svg>