<svg id="visual" viewBox="0 0 900 600" width="900" height="600" xmlns="http://www.w3.org/2000/svg" xmlns:xlink="http://www.w3.org/1999/xlink" version="1.1"><path d="M0 313L21.5 323.2C43 333.3 86 353.7 128.8 346.5C171.7 339.3 214.3 304.7 257.2 270.8C300 237 343 204 385.8 208C428.7 212 471.3 253 514.2 265.3C557 277.7 600 261.3 642.8 284.7C685.7 308 728.3 371 771.2 389.5C814 408 857 382 878.5 369L900 356L900 601L878.5 601C857 601 814 601 771.2 601C728.3 601 685.7 601 642.8 601C600 601 557 601 514.2 601C471.3 601 428.7 601 385.8 601C343 601 300 601 257.2 601C214.3 601 171.7 601 128.8 601C86 601 43 601 21.5 601L0 601Z" fill="#d9b28d" stroke-linecap="round" stroke-linejoin="miter"></path></svg>